HIERARCHY
ROOT root
{
	OFFSET 0.000000 0.000000 0.000000
	CHANNELS 6 Xposition Yposition Zposition Zrotation Yrotation Xrotation
	JOINT lhip
	{
		OFFSET 0.058581 -0.082280 -0.017664
		CHANNELS 3 Zrotation Yrotation Xrotation
		JOINT lknee
		{
			OFFSET 0.043451 -0.386469 0.008037
			CHANNELS 3 Zrotation Yrotation Xrotation
			JOINT lankle
			{
				OFFSET -0.014790 -0.426874 -0.037428
				CHANNELS 3 Zrotation Yrotation Xrotation
				JOINT ltoe
				{
					OFFSET 0.041054 -0.060286 0.122042
					CHANNELS 3 Zrotation Yrotation Xrotation
					End Site
					{
						OFFSET 0.000000 0.000000 0.000000
					}
				}
			}
		}
	}
	JOINT rhip
	{
		OFFSET -0.060310 -0.090513 -0.013543
		CHANNELS 3 Zrotation Yrotation Xrotation
		JOINT rknee
		{
			OFFSET -0.043257 -0.383688 -0.004843
			CHANNELS 3 Zrotation Yrotation Xrotation
			JOINT rankle
			{
				OFFSET 0.019056 -0.420046 -0.034562
				CHANNELS 3 Zrotation Yrotation Xrotation
				JOINT rtoe
				{
					OFFSET -0.034840 -0.062106 0.130323
					CHANNELS 3 Zrotation Yrotation Xrotation
					End Site
					{
						OFFSET 0.000000 0.000000 0.000000
					}
				}
			}
		}
	}
	JOINT lowerback
	{
		OFFSET 0.004439 0.124404 -0.038385
		CHANNELS 3 Zrotation Yrotation Xrotation
		JOINT upperback
		{
			OFFSET 0.004488 0.137956 0.026820
			CHANNELS 3 Zrotation Yrotation Xrotation
			JOINT chest
			{
				OFFSET -0.002265 0.056032 0.002855
				CHANNELS 3 Zrotation Yrotation Xrotation
				JOINT lowerneck
				{
					OFFSET -0.013390 0.211636 -0.033468
					CHANNELS 3 Zrotation Yrotation Xrotation
					JOINT upperneck
					{
						OFFSET 0.010113 0.088937 0.050410
						CHANNELS 3 Zrotation Yrotation Xrotation
						End Site
						{
							OFFSET 0.000000 0.000000 0.000000
						}
					}
				}
				JOINT lclavicle
				{
					OFFSET 0.071702 0.114000 -0.018898
					CHANNELS 3 Zrotation Yrotation Xrotation
					JOINT lshoulder
					{
						OFFSET 0.122921 0.045205 -0.019046
						CHANNELS 3 Zrotation Yrotation Xrotation
						JOINT lelbow
						{
							OFFSET 0.255332 -0.015649 -0.022946
							CHANNELS 3 Zrotation Yrotation Xrotation
							JOINT lwrist
							{
								OFFSET 0.265709 0.012698 -0.007375
								CHANNELS 3 Zrotation Yrotation Xrotation
								End Site
								{
									OFFSET 0.000000 0.000000 0.000000
								}
							}
						}
					}
				}
				JOINT rclavicle
				{
					OFFSET -0.082954 0.112472 -0.023707
					CHANNELS 3 Zrotation Yrotation Xrotation
					JOINT rshoulder
					{
						OFFSET -0.113228 0.046853 -0.008472
						CHANNELS 3 Zrotation Yrotation Xrotation
						JOINT relbow
						{
							OFFSET -0.260127 -0.014369 -0.031269
							CHANNELS 3 Zrotation Yrotation Xrotation
							JOINT rwrist
							{
								OFFSET -0.269108 0.006794 -0.006027
								CHANNELS 3 Zrotation Yrotation Xrotation
								End Site
								{
									OFFSET 0.000000 0.000000 0.000000
								}
							}
						}
					}
				}
			}
		}
	}
}
MOTION
Frames: 15
Frame Time: 0.033333
1.203974 1.163156 0.990964 -88.776798 3.791626 84.951885 1.181152 -0.388426 7.126933 -2.913064 -14.456272 2.357278 3.057246 8.180187 -14.522188 0.000000 -0.000000 0.000000 4.132580 -1.992327 5.529321 4.253898 3.519726 5.721826 1.729738 -3.011647 -9.377743 0.000000 -0.000000 0.000000 -1.262165 1.915425 4.068386 2.669211 -2.352746 3.311512 1.465625 -1.978202 4.743714 4.269952 -0.948409 2.970857 2.136375 -5.356380 8.433962 -26.456877 4.113404 1.928508 -61.857749 -7.539940 8.658997 9.292079 -25.587175 4.278421 -1.940126 -1.086924 -7.976487 24.477393 -3.099662 -0.111148 60.563648 3.260161 11.151362 -16.395626 27.604086 -3.881547 5.592102 -1.023150 -7.315571 
1.203985 1.163400 0.990732 -88.793392 3.736384 85.043309 1.085705 -0.543885 7.044825 -2.827295 -14.556614 2.252156 2.946222 8.413614 -14.299429 0.000000 -0.000000 0.000000 4.103673 -1.798709 5.369737 4.332610 3.620122 5.777990 1.872878 -3.248731 -9.506493 0.000000 -0.000000 0.000000 -1.194023 1.923530 3.808116 2.588835 -2.277890 3.349232 1.375008 -1.969379 4.820480 4.281615 -0.927456 2.614706 2.171412 -5.361532 8.039573 -26.292073 4.073178 1.552654 -61.718594 -7.841396 8.879950 8.895344 -25.898705 4.829832 -2.022595 -0.846187 -8.251439 24.200833 -3.110440 -0.349180 60.759940 3.217889 11.358669 -16.241967 27.839000 -3.767902 5.888787 -1.560742 -7.770392 
1.204068 1.164231 0.990860 -88.703622 3.644831 85.058602 1.036957 -0.760812 6.993429 -2.845526 -14.366247 2.312822 2.974153 8.348847 -14.410482 0.000000 -0.000000 0.000000 4.059785 -1.612344 5.399465 4.355036 3.334265 5.800050 1.831689 -3.170156 -9.604937 0.000000 -0.000000 0.000000 -1.343541 1.972738 3.805979 2.563163 -2.279868 3.296304 1.455465 -2.008490 4.755566 4.054260 -0.742586 2.566400 2.165058 -5.220587 7.652947 -26.149942 3.965241 1.705252 -62.032435 -7.822620 8.941666 9.443990 -26.480578 4.332636 -2.069365 -0.942675 -8.324370 24.259411 -2.986426 -0.287816 60.729353 3.304995 11.316082 -16.460078 27.928225 -3.878783 5.472619 -1.373322 -7.543457 
1.203829 1.164929 0.990717 -88.631308 3.619796 85.021664 1.043245 -0.764492 6.957470 -2.865041 -14.568047 2.450519 2.701436 8.440901 -14.513614 0.000000 -0.000000 0.000000 4.148846 -1.651854 5.401301 4.243929 3.569541 5.848846 1.947482 -3.352112 -9.624352 0.000000 -0.000000 0.000000 -1.360016 1.996047 3.728230 2.577969 -2.268075 3.369303 1.505530 -2.013056 4.780488 4.106956 -0.839770 1.932809 2.277995 -5.431653 7.696720 -26.256228 3.945691 1.436531 -61.996800 -7.898329 8.912974 9.545913 -26.571101 4.155831 -1.863447 -0.812667 -8.358720 24.382432 -3.008065 -0.553245 60.294260 3.592090 11.236187 -15.422992 26.909843 -3.560688 6.700954 -1.031913 -7.612109 
1.203318 1.165073 0.990636 -88.561164 3.662656 84.978279 1.037383 -0.737125 7.074421 -2.753056 -14.646171 2.445016 2.693425 8.498573 -14.615681 0.000000 -0.000000 0.000000 4.226000 -1.705757 5.300030 4.203211 3.499600 6.005872 1.975385 -3.403427 -9.756064 0.000000 -0.000000 0.000000 -1.270683 1.898609 3.763949 2.564824 -2.206588 3.177957 1.526484 -2.048650 4.838614 4.172810 -1.044845 1.865563 2.114001 -5.401272 7.732993 -26.155355 4.078427 1.433091 -62.265074 -7.783653 8.926962 9.644481 -26.564283 4.430530 -1.555928 -1.092794 -8.578521 24.270977 -3.171703 -0.521961 60.326381 3.766505 11.137339 -14.781604 26.474743 -3.319475 6.953488 -0.428725 -7.955190 
1.202999 1.165839 0.990776 -88.600560 3.698149 84.967353 1.062793 -0.757857 7.098290 -2.637882 -14.622950 2.452393 2.608384 8.462437 -14.530318 0.000000 -0.000000 0.000000 4.381869 -1.525024 5.301275 4.120415 3.517109 5.934807 1.972608 -3.433722 -9.694299 0.000000 -0.000000 0.000000 -1.261172 1.948663 3.619522 2.630173 -2.083685 3.198976 1.523921 -2.012908 4.889484 4.361695 -1.186883 1.378280 2.025415 -5.703446 7.806147 -26.140387 4.203814 1.261658 -62.110394 -7.942966 8.971063 9.275691 -25.937129 4.909602 -1.677587 -1.292456 -8.491740 24.078382 -3.425283 -0.651105 60.631220 3.571285 11.203844 -14.840301 25.979849 -3.259156 6.995106 -0.276253 -8.289202 
1.201997 1.166087 0.990931 -88.373838 3.721086 84.892819 1.077159 -0.728826 7.210623 -2.592435 -14.860782 2.563693 2.624366 8.451155 -14.665071 0.000000 -0.000000 0.000000 4.375141 -1.738596 5.577154 4.243882 3.641046 5.597863 1.850541 -3.548218 -9.538922 0.000000 -0.000000 0.000000 -1.232995 1.831950 3.494993 2.595411 -2.201593 3.274425 1.478424 -1.974887 4.935611 4.399846 -1.115498 1.251751 2.203213 -5.696977 7.589489 -25.953548 4.316487 1.163195 -62.093005 -7.997666 8.967913 8.987491 -25.111341 5.410599 -1.768581 -1.421848 -8.720294 24.089108 -3.458347 -0.646211 60.780132 3.469425 11.167779 -14.656653 25.184002 -3.086954 6.996132 -0.318689 -8.549220 
1.202624 1.166750 0.991113 -88.405353 3.523494 84.830662 0.859788 -0.861212 7.189194 -2.617239 -14.786763 2.695064 2.649361 8.529391 -14.692123 0.000000 -0.000000 0.000000 4.229059 -1.490215 5.504836 4.220573 3.398798 5.796698 1.975350 -3.449829 -9.743232 0.000000 -0.000000 0.000000 -1.438134 1.980039 3.708608 2.569209 -2.224798 3.198481 1.566132 -2.047221 4.769285 4.378427 -1.176546 1.542970 2.259265 -5.690863 7.398426 -25.999063 4.444684 1.391597 -62.322889 -7.539330 8.849090 9.611690 -24.927723 4.736707 -1.757454 -1.209465 -8.271708 24.052726 -3.458155 -0.485061 60.828573 3.233809 11.096392 -14.715369 24.561741 -3.191016 7.096628 -0.365008 -8.515707 
1.201278 1.167702 0.990872 -88.516084 3.604341 84.770137 1.060312 -0.611476 7.392485 -2.611618 -14.931243 2.604437 2.741530 8.555983 -14.809989 0.000000 -0.000000 0.000000 4.319355 -1.711796 5.727367 4.271159 3.538846 5.624143 1.735590 -3.372209 -9.742130 0.000000 -0.000000 0.000000 -1.381770 1.845118 3.409205 2.607491 -2.144796 3.426086 1.559537 -1.961727 4.727055 4.455756 -1.593956 1.870216 2.227324 -5.784375 7.056451 -25.996693 4.543734 1.678111 -62.323443 -7.211591 8.611485 9.672839 -24.336122 4.789687 -1.850570 -1.145028 -8.230686 23.920972 -3.528556 -0.189990 60.977054 2.975853 10.816260 -14.459746 24.281065 -3.059368 7.205425 -0.638786 -8.708718 
1.201273 1.168666 0.990755 -88.349901 3.551950 84.719184 1.044566 -0.679185 7.271318 -2.631634 -15.044880 2.937493 2.734248 8.562990 -14.918107 0.000000 -0.000000 0.000000 4.281451 -1.727131 5.885617 4.384965 3.601702 5.486536 1.847937 -3.439252 -9.802787 0.000000 -0.000000 0.000000 -1.427622 1.853822 3.559702 2.572993 -2.238034 3.256797 1.601312 -2.009008 4.772705 4.506924 -1.638592 1.542668 2.178224 -5.838061 7.037745 -25.990579 4.614639 1.886984 -62.340595 -6.945549 8.434346 9.735056 -23.075937 4.827782 -1.973971 -1.059195 -8.307930 23.751292 -3.673373 -0.103147 61.264311 2.662920 10.741309 -14.454491 23.165184 -2.820034 7.191354 -0.662634 -8.751291 
1.200888 1.169395 0.990756 -88.607155 3.454205 84.768244 0.961718 -0.675868 7.335829 -2.569938 -14.945173 2.799394 2.765940 8.677536 -14.848909 0.000000 -0.000000 0.000000 4.187918 -1.521663 5.773391 4.476261 3.625083 5.609878 1.867674 -3.333092 -9.803034 0.000000 -0.000000 0.000000 -1.445542 1.884479 3.355003 2.518997 -2.133546 3.269579 1.526826 -1.992409 4.848110 4.475620 -1.633796 1.520939 2.121398 -5.806398 6.797633 -26.061958 4.780580 1.971819 -62.253825 -6.635097 8.272960 9.832121 -21.991986 4.694111 -2.228175 -1.071510 -8.170382 23.817930 -3.785624 -0.069655 61.367156 2.606434 10.651404 -14.297858 22.240697 -2.820218 7.203998 -0.735699 -8.752581 
1.201515 1.170124 0.990898 -88.682469 3.352789 84.749488 0.878321 -0.796801 7.240852 -2.601107 -14.784668 2.925891 2.647406 8.778842 -14.806933 0.000000 -0.000000 0.000000 4.175440 -1.269408 5.672286 4.459985 3.523625 5.742272 1.897700 -3.416064 -9.853157 0.000000 -0.000000 0.000000 -1.531856 2.090376 3.518289 2.485010 -2.094370 3.158256 1.519904 -2.091770 4.937869 4.436641 -1.160030 1.143170 2.187788 -5.604855 6.736849 -26.085718 4.950902 1.866068 -62.275232 -6.490934 8.211633 9.945678 -20.710235 4.659488 -2.477848 -1.145502 -7.936304 23.939564 -3.947916 -0.176121 61.392859 2.376789 10.672593 -14.262829 21.466285 -3.155159 7.156547 -0.639908 -9.159256 
1.201325 1.170823 0.990769 -88.650938 3.300968 84.668240 0.887843 -0.740686 7.342327 -2.601616 -14.861941 2.928633 2.664469 8.749407 -14.828568 0.000000 -0.000000 0.000000 4.095844 -1.510387 5.805435 4.521800 3.732033 5.695085 1.846507 -3.348591 -9.930623 0.000000 -0.000000 0.000000 -1.605004 2.155751 3.575181 2.480402 -2.178467 3.244467 1.534125 -2.085400 4.878522 4.484498 -1.186434 1.385449 2.342659 -5.570826 6.547758 -25.990587 5.152762 1.969001 -62.483437 -6.224243 8.046429 10.089194 -19.835370 4.609212 -2.609734 -1.067205 -8.046356 23.871935 -4.044557 -0.157011 61.583685 2.208664 10.565879 -14.154767 20.869695 -3.168320 7.151566 -0.652584 -9.443507 
1.200879 1.171792 0.990803 -88.725588 3.299286 84.678299 0.933063 -0.860345 7.381409 -2.592778 -14.862313 2.905577 2.574840 8.892067 -14.862755 0.000000 -0.000000 0.000000 4.211075 -1.172903 5.894767 4.531099 3.707659 5.522687 1.804906 -3.616758 -9.816721 0.000000 -0.000000 0.000000 -1.676821 2.046760 3.555222 2.476998 -2.096660 3.164166 1.540012 -2.040719 4.950770 4.594738 -1.140979 1.057749 2.373159 -5.689760 6.447128 -26.077002 5.518567 1.980975 -62.356629 -5.811890 7.961682 10.031563 -19.404251 4.746527 -2.934697 -1.001075 -8.021634 24.018686 -4.192054 -0.262816 61.547436 2.045845 10.626839 -14.086595 20.224786 -3.146583 7.136134 -0.688408 -9.500317 
1.201099 1.172701 0.990790 -88.763188 3.338429 84.649441 1.042574 -0.833712 7.323197 -2.636813 -14.840727 3.066605 2.505818 8.885478 -14.857138 0.000000 -0.000000 0.000000 4.322280 -1.171911 5.881435 4.539726 3.692134 5.566441 1.703543 -3.639602 -9.862737 0.000000 -0.000000 0.000000 -1.700084 2.015400 3.724584 2.484795 -2.081568 3.041846 1.596899 -1.994816 4.945150 4.618358 -1.036488 0.952895 2.326674 -5.589439 6.448941 -26.055983 5.667023 2.076068 -62.446386 -5.547633 7.864529 10.145332 -18.870380 4.908531 -3.182972 -1.009369 -8.014889 23.955367 -4.299674 -0.210753 61.697831 2.039630 10.560880 -14.103683 19.875489 -3.026942 7.140920 -0.673755 -9.492898 
